<?xml version="1.0" encoding="UTF-8" standalone="no"?><!DOCTYPE svg PUBLIC "-//W3C//DTD SVG 1.1//EN" "http://www.w3.org/Graphics/SVG/1.1/DTD/svg11.dtd"><svg width="100%" height="100%" viewBox="0 0 134 121" version="1.1" xmlns="http://www.w3.org/2000/svg" xmlns:xlink="http://www.w3.org/1999/xlink" xml:space="preserve" xmlns:serif="http://www.serif.com/" style="fill-rule:evenodd;clip-rule:evenodd;stroke-linejoin:round;stroke-miterlimit:2;"><rect id="logo-futeki" x="0" y="-0" width="133.263" height="120.331" style="fill:none;"/><g><path d="M46.532,113.673c-0.286,-1.805 -0.277,-1.795 -0.309,-1.95c-1.389,-6.811 -0.525,-7.591 -3.202,-8.901c-5.218,-2.554 -5.672,-2.531 -7.218,-1.443c-4.799,3.379 -7.133,6.573 -9.823,5.536c-0.585,-0.225 -0.825,-0.318 -5.687,-5.384c-0.546,-0.568 -6.752,-7.034 -6.813,-7.113c-3.363,-4.333 4.325,-8.868 5.27,-12.712c0.349,-1.419 -1.886,-6.346 -2.514,-7.094c-0.578,-0.687 -1.026,-1.129 -3.247,-1.475c-7.503,-1.171 -9.848,-0.217 -9.894,-6.377c-0.008,-1.12 -0.078,-10.428 0.02,-13.998c0.111,-4.04 3.017,-4.234 8.912,-5.161c3.667,-0.576 3.913,-0.716 5.594,-4.041c2.32,-4.587 1.056,-4.985 -3.299,-10.991c-2.863,-3.95 -2.132,-4.862 2.771,-9.768c3.762,-3.764 3.565,-3.924 7.365,-7.631c2.814,-2.746 4.213,-1.424 8.816,2.313c4.233,3.437 4.81,2.568 8.678,1.019c4.377,-1.753 2.978,-3.162 4.056,-8.751c0.852,-4.414 0.549,-5.743 5.046,-5.842c7.755,-0.17 8.513,0.68 8.738,2.879c0.08,0.784 0.151,26.677 0.134,26.964c-0.018,0.296 -0.026,0.901 -0.026,0.901l-4.153,0.09c0,0 0.007,0.044 0,-0c-0.294,-1.985 0.158,-22.008 -0.215,-24.077c-0.547,-3.036 -4.472,-3.18 -5.316,0.133c-1.481,5.814 0.61,8.891 -4.235,10.791c-4.901,1.922 -7.574,3.615 -8.968,3.452c-1.789,-0.21 -7.447,-5.543 -9.06,-5.828c-1.272,-0.225 -2.321,0.841 -2.47,0.993c-5.465,5.559 -5.524,5.482 -5.996,5.968c-3.294,3.398 -1.359,4.114 2.478,9.645c2.815,4.058 1.284,4.522 -1.682,12.025c-1.625,4.109 -2.544,3.55 -8.31,4.448c-4,0.623 -4.591,0.976 -4.606,4.465c-0.038,8.91 0.064,9.436 0.376,10.17c0.531,1.25 0.934,0.848 8.232,2.242c4.084,0.78 3.542,1.847 5.389,6.469c0.662,1.656 0.677,1.628 1.341,3.264c1.657,4.084 0.112,4.135 -3.905,10.716c-1.614,2.644 -1.111,3.349 6.071,10.327c2.887,2.805 3.547,1.669 6.813,-0.683c4.257,-3.065 4.499,-4.478 9.27,-2.289c5.617,2.577 5.659,2.475 6.14,2.714c3.284,1.628 2.224,7.807 3.5,11.258c0.777,2.101 4.276,1.972 5,-0.282c0.284,-0.883 -0.066,-22.606 0.083,-23.943c0.01,-0.089 0.041,-0.248 0.041,-0.248l4.092,0.05c0,0 0.028,0.166 0.038,0.26c0.192,1.871 0.025,19.601 -0.023,22.975c-0.075,5.199 0.428,7.065 -4.773,7.055c-5.389,-0.011 -7.474,-0.166 -8.188,-1.972c-0.149,-0.376 -0.185,-0.791 -0.333,-1.167Z" style="fill:#0f3f4e;"/><path d="M77.057,91.339c-0.722,0.002 -5.588,0.017 -9.028,-0.106c-3.709,-0.133 -3.272,-3.229 -0.857,-4.035c1.779,-0.593 13.686,-0.317 14.876,-0.289c5.127,0.119 4.982,2.696 7.294,6.689c2.761,4.767 3.414,4.386 5.755,4.975c7.58,1.91 7.505,9.212 5.766,12.073c-4.75,7.815 -17.057,2.743 -13.862,-6.904c0.895,-2.703 1.409,-2.971 -1.152,-7.879c-2.62,-5.021 -3.554,-4.461 -8.793,-4.524Zm15.803,11.984c-0.132,0.056 -1.146,0.462 -1.683,1.049c-0.43,0.47 -0.597,0.935 -0.691,1.433c-0.223,1.17 0.163,2.379 0.634,3.109c1.021,1.581 2.736,1.498 3.771,1.288c0.32,-0.065 1.141,-0.362 1.347,-0.524c1.095,-0.86 2.033,-3.022 0.928,-5.072c-0.712,-1.322 -2.633,-1.993 -4.306,-1.282Z" style="fill:#114150;"/><path d="M91.846,11.214c0.257,-0.209 0.523,-0.369 0.793,-0.487c-0.265,0.121 -0.53,0.282 -0.793,0.487Z" style="fill:#0d3e4d;"/><path d="M94.144,22.208c-0.224,0.077 -2.068,-0.015 -3.772,2.748c-3.757,6.089 -3.65,8.582 -8.314,8.888c-1.799,0.118 -13.064,0.247 -14.958,-0.244c-1.807,-0.468 -3.787,-3.908 1.941,-4.127c5.703,-0.219 12.362,0.44 13.963,-0.78c1.326,-1.01 4.731,-6.595 4.468,-8.99c-0.064,-0.586 -3.263,-6.682 0.673,-10.86c4.288,-4.552 11.236,-2.332 12.998,2.885c1.168,3.459 -0.407,7.547 -3.066,9.07c-1.842,1.055 -1.889,0.903 -3.934,1.41Zm1.297,-4.808c0.045,-0.029 0.881,-0.621 0.987,-0.712c0.182,-0.157 0.371,-0.391 0.423,-0.451c0.171,-0.196 0.33,-0.444 0.474,-0.753c1.156,-2.484 -1.713,-6.118 -4.685,-4.756c-0.27,0.117 -0.536,0.278 -0.793,0.487c-0.076,0.059 -0.509,0.418 -0.838,0.951c-0.299,0.485 -0.495,1.138 -0.551,1.38c-0.245,1.06 -0.059,2.046 0.4,2.816c0.885,1.486 2.787,2.17 4.583,1.038Z" style="fill:#0d3e4d;"/><path d="M100.226,90.585c-2.308,-2.291 -2.259,-2.334 -2.461,-2.532c-0.574,-0.561 -2.617,-2.215 -2.677,-2.313c-0.233,-0.379 -0.999,-0.997 -0.999,-0.997c0,0 4.907,-0.81 6.607,0.482c0.327,0.248 3.633,3.49 3.963,3.874c2.171,2.53 0.377,3.97 -0.543,4.06c-1.095,0.107 -1.785,-0.422 -3.89,-2.575Z" style="fill:#173d4c;"/><path d="M102.9,33.597c-1.257,1.162 -2.058,2.267 -4.207,2.739c-0.488,0.107 -0.968,-0.01 -1.626,0.05c-0.142,0.013 -2.888,-0.221 -2.888,-0.221c0,0 1.181,-1.373 1.297,-1.482c0.505,-0.474 2.043,-1.867 4.343,-4.158c1.67,-1.664 3.764,-4.403 5.537,-1.955c1.176,1.624 -1.46,4.035 -2.457,5.026Z" style="fill:#113b4b;"/><g><path d="M49.276,65.461c0,0.358 0.01,0.629 0.03,0.815c0.02,0.186 0.057,0.336 0.111,0.451c0.054,0.115 0.12,0.208 0.197,0.278c0.078,0.071 0.186,0.135 0.324,0.192c0.138,0.057 0.326,0.103 0.562,0.137l0,0.668l-5.448,0l0,-0.668c0.25,-0.061 0.447,-0.132 0.592,-0.213c0.145,-0.081 0.253,-0.191 0.324,-0.329c0.071,-0.138 0.116,-0.316 0.137,-0.532c0.02,-0.216 0.03,-0.486 0.03,-0.81l0,-8.718c0,-0.317 -0.008,-0.584 -0.025,-0.8c-0.017,-0.216 -0.061,-0.392 -0.132,-0.527c-0.071,-0.135 -0.179,-0.245 -0.324,-0.329c-0.145,-0.084 -0.346,-0.16 -0.602,-0.228l0,-0.668l9.792,0l0,3.22l-1.387,0c-0.223,-0.641 -0.412,-1.075 -0.567,-1.301c-0.155,-0.226 -0.341,-0.405 -0.557,-0.537c-0.216,-0.132 -0.584,-0.197 -1.104,-0.197l-1.954,0l0,5.154l1.296,0c0.317,0 0.562,-0.049 0.734,-0.147c0.172,-0.098 0.314,-0.262 0.425,-0.491c0.111,-0.23 0.204,-0.554 0.278,-0.972l1.144,0l0,4.415l-1.144,0c-0.081,-0.425 -0.179,-0.754 -0.294,-0.987c-0.115,-0.233 -0.257,-0.397 -0.425,-0.491c-0.169,-0.095 -0.408,-0.142 -0.719,-0.142l-1.296,0l0,3.757Z" style="fill:#1c4651;"/><path d="M67.969,56.723c0,-0.506 -0.022,-0.859 -0.066,-1.058c-0.044,-0.199 -0.13,-0.359 -0.258,-0.481c-0.128,-0.122 -0.378,-0.233 -0.749,-0.334l0,-0.668l4.455,0l0,0.668c-0.243,0.068 -0.435,0.14 -0.577,0.218c-0.142,0.078 -0.25,0.186 -0.324,0.324c-0.074,0.138 -0.122,0.314 -0.142,0.527c-0.02,0.213 -0.03,0.481 -0.03,0.805l0,6.329c0,0.837 -0.068,1.537 -0.203,2.101c-0.135,0.564 -0.344,1.038 -0.628,1.423c-0.284,0.385 -0.636,0.695 -1.058,0.932c-0.422,0.236 -0.896,0.405 -1.423,0.506c-0.527,0.101 -1.117,0.152 -1.772,0.152c-0.959,0 -1.769,-0.1 -2.43,-0.299c-0.662,-0.199 -1.2,-0.5 -1.615,-0.901c-0.415,-0.402 -0.722,-0.889 -0.921,-1.463c-0.199,-0.574 -0.299,-1.313 -0.299,-2.218l0,-6.551c0,-0.317 -0.008,-0.584 -0.025,-0.8c-0.017,-0.216 -0.061,-0.392 -0.132,-0.527c-0.071,-0.135 -0.179,-0.245 -0.324,-0.329c-0.145,-0.084 -0.346,-0.16 -0.602,-0.228l0,-0.668l5.316,0l0,0.668c-0.277,0.074 -0.481,0.154 -0.613,0.238c-0.132,0.084 -0.231,0.187 -0.299,0.309c-0.068,0.122 -0.115,0.28 -0.142,0.476c-0.027,0.196 -0.041,0.483 -0.041,0.861l0,6.683c0,0.533 0.034,1.019 0.101,1.458c0.068,0.439 0.191,0.815 0.37,1.129c0.179,0.314 0.427,0.555 0.744,0.724c0.317,0.169 0.726,0.253 1.225,0.253c0.689,0 1.202,-0.138 1.539,-0.415c0.338,-0.277 0.575,-0.663 0.714,-1.159c0.138,-0.496 0.208,-1.237 0.208,-2.223l0,-6.46Z" style="fill:#1c4651;"/><path d="M78.52,68.003l0,-0.668c0.284,-0.047 0.508,-0.11 0.673,-0.187c0.165,-0.078 0.289,-0.187 0.37,-0.329c0.081,-0.142 0.132,-0.322 0.152,-0.542c0.02,-0.219 0.03,-0.491 0.03,-0.815l0,-10.095l-0.82,0c-0.405,0 -0.716,0.047 -0.932,0.142c-0.216,0.095 -0.403,0.243 -0.562,0.446c-0.159,0.203 -0.295,0.474 -0.41,0.815c-0.115,0.341 -0.209,0.663 -0.284,0.967l-1.387,0l0,-3.554l11.918,0l0,3.554l-1.387,0c-0.128,-0.459 -0.23,-0.797 -0.304,-1.013c-0.074,-0.216 -0.157,-0.4 -0.248,-0.552c-0.091,-0.152 -0.187,-0.278 -0.289,-0.38c-0.101,-0.101 -0.209,-0.182 -0.324,-0.243c-0.115,-0.061 -0.258,-0.106 -0.43,-0.137c-0.172,-0.03 -0.397,-0.046 -0.673,-0.046l-0.729,0l0,10.095c0,0.358 0.01,0.629 0.03,0.815c0.02,0.186 0.057,0.336 0.111,0.451c0.054,0.115 0.12,0.208 0.197,0.278c0.078,0.071 0.186,0.135 0.324,0.192c0.138,0.057 0.326,0.103 0.562,0.137l0,0.668l-5.589,0Z" style="fill:#1c4651;"/><path d="M101.313,54.181l0,3.22l-1.387,0c-0.223,-0.641 -0.412,-1.075 -0.567,-1.301c-0.155,-0.226 -0.341,-0.405 -0.557,-0.537c-0.216,-0.132 -0.584,-0.197 -1.104,-0.197l-2.207,0l0,4.86l1.337,0c0.297,0 0.53,-0.042 0.699,-0.127c0.169,-0.084 0.309,-0.224 0.42,-0.42c0.111,-0.196 0.218,-0.5 0.319,-0.911l1.144,0l0,4.111l-1.144,0c-0.095,-0.392 -0.199,-0.69 -0.314,-0.896c-0.115,-0.206 -0.251,-0.353 -0.41,-0.44c-0.159,-0.088 -0.397,-0.132 -0.714,-0.132l-1.337,0l0,5.407l2.197,0c0.236,0 0.435,-0.015 0.597,-0.046c0.162,-0.03 0.307,-0.083 0.435,-0.157c0.128,-0.074 0.251,-0.176 0.37,-0.304c0.118,-0.128 0.223,-0.267 0.314,-0.415c0.091,-0.149 0.187,-0.344 0.289,-0.587c0.101,-0.243 0.213,-0.577 0.334,-1.002l1.387,0l-0.192,3.696l-9.954,0l0,-0.668c0.25,-0.068 0.447,-0.14 0.592,-0.218c0.145,-0.078 0.253,-0.186 0.324,-0.324c0.071,-0.138 0.116,-0.314 0.137,-0.527c0.02,-0.213 0.03,-0.481 0.03,-0.805l0,-8.728c0,-0.317 -0.008,-0.584 -0.025,-0.8c-0.017,-0.216 -0.061,-0.392 -0.132,-0.527c-0.071,-0.135 -0.179,-0.245 -0.324,-0.329c-0.145,-0.084 -0.346,-0.16 -0.602,-0.228l0,-0.668l10.045,0Z" style="fill:#1c4651;"/><path d="M116.674,65.309c0.263,0.405 0.484,0.727 0.663,0.967c0.179,0.24 0.336,0.427 0.471,0.562c0.135,0.135 0.268,0.238 0.4,0.309c0.132,0.071 0.305,0.137 0.521,0.197l0,0.658l-5.488,0l0,-0.668c0.23,-0.034 0.385,-0.089 0.466,-0.167c0.081,-0.078 0.122,-0.181 0.122,-0.309c0,-0.108 -0.015,-0.214 -0.046,-0.319c-0.03,-0.105 -0.103,-0.258 -0.218,-0.461c-0.115,-0.203 -0.348,-0.574 -0.699,-1.114l-1.549,-2.39c-0.189,-0.29 -0.353,-0.516 -0.491,-0.678c-0.138,-0.162 -0.277,-0.278 -0.415,-0.349c-0.138,-0.071 -0.329,-0.106 -0.572,-0.106l-0.203,0l0,4.02c0,0.236 0.007,0.456 0.02,0.658c0.014,0.203 0.041,0.368 0.081,0.496c0.041,0.128 0.1,0.236 0.177,0.324c0.078,0.088 0.184,0.164 0.319,0.228c0.135,0.064 0.3,0.12 0.496,0.167l0,0.668l-5.316,0l0,-0.668c0.25,-0.068 0.447,-0.14 0.592,-0.218c0.145,-0.078 0.253,-0.186 0.324,-0.324c0.071,-0.138 0.116,-0.314 0.137,-0.527c0.02,-0.213 0.03,-0.481 0.03,-0.805l0,-8.728c0,-0.317 -0.008,-0.584 -0.025,-0.8c-0.017,-0.216 -0.061,-0.392 -0.132,-0.527c-0.071,-0.135 -0.179,-0.245 -0.324,-0.329c-0.145,-0.084 -0.346,-0.16 -0.602,-0.228l0,-0.668l5.316,0l0,0.668c-0.284,0.074 -0.491,0.155 -0.623,0.243c-0.132,0.088 -0.23,0.192 -0.294,0.314c-0.064,0.122 -0.11,0.277 -0.137,0.466c-0.027,0.189 -0.041,0.476 -0.041,0.861l0,3.605l0.213,0c0.311,0 0.557,-0.034 0.739,-0.101c0.182,-0.068 0.37,-0.189 0.562,-0.365c0.192,-0.176 0.564,-0.586 1.114,-1.23c0.55,-0.645 0.948,-1.141 1.195,-1.488c0.246,-0.348 0.415,-0.635 0.506,-0.861c0.091,-0.226 0.137,-0.451 0.137,-0.673c0,-0.236 -0.079,-0.422 -0.238,-0.557c-0.159,-0.135 -0.383,-0.206 -0.673,-0.213l0,-0.668l5.174,0l0,0.689c-0.257,0.047 -0.476,0.118 -0.658,0.213c-0.182,0.095 -0.392,0.248 -0.628,0.461c-0.236,0.213 -0.537,0.525 -0.901,0.937l-3.038,3.402l3.534,5.427Z" style="fill:#1c4651;"/><path d="M126.952,65.461c0,0.236 0.007,0.456 0.02,0.658c0.014,0.203 0.041,0.368 0.081,0.496c0.041,0.128 0.1,0.236 0.177,0.324c0.078,0.088 0.184,0.164 0.319,0.228c0.135,0.064 0.3,0.12 0.496,0.167l0,0.668l-5.316,0l0,-0.668c0.25,-0.068 0.447,-0.14 0.592,-0.218c0.145,-0.078 0.253,-0.186 0.324,-0.324c0.071,-0.138 0.116,-0.314 0.137,-0.527c0.02,-0.213 0.03,-0.481 0.03,-0.805l0,-8.738c0,-0.324 -0.008,-0.591 -0.025,-0.8c-0.017,-0.209 -0.061,-0.383 -0.132,-0.521c-0.071,-0.138 -0.179,-0.248 -0.324,-0.329c-0.145,-0.081 -0.346,-0.155 -0.602,-0.223l0,-0.668l5.316,0l0,0.668c-0.277,0.074 -0.481,0.154 -0.613,0.238c-0.132,0.084 -0.231,0.187 -0.299,0.309c-0.068,0.122 -0.115,0.28 -0.142,0.476c-0.027,0.196 -0.041,0.483 -0.041,0.861l0,8.728Z" style="fill:#1c4651;"/></g></g></svg>