<?xml version="1.0" encoding="UTF-8" standalone="no"?><!DOCTYPE svg PUBLIC "-//W3C//DTD SVG 1.1//EN" "http://www.w3.org/Graphics/SVG/1.1/DTD/svg11.dtd"><svg width="100%" height="100%" viewBox="0 0 57 97" version="1.1" xmlns="http://www.w3.org/2000/svg" xmlns:xlink="http://www.w3.org/1999/xlink" xml:space="preserve" xmlns:serif="http://www.serif.com/" style="fill-rule:evenodd;clip-rule:evenodd;stroke-linejoin:round;stroke-miterlimit:2;"><rect id="not_found" x="-0" y="0" width="56.769" height="96.227" style="fill:none;"/><g id="Gemini_Generated_Image_2me9um2me9um2me9.png"><path d="M20.016,81.107c-0.276,0.43 -0.324,1.895 -0.663,3.884c-0.161,0.947 -0.553,0.51 -1.497,0.573c-0.49,0.032 -0.481,1.723 -0.367,1.956c0.398,0.816 0.321,1.201 0.36,3.706c-0.016,1.589 0.214,2.716 -0.544,2.994c-0.65,0.239 -11.836,0.106 -12.865,0.094c-1.792,-0.021 -1.32,-1.01 -1.274,-1.89l0.052,-0.249c0.667,-1.779 1.509,-1.686 3.518,-2.585c2.941,-1.316 3.329,-0.938 4.175,-2.622c0.401,-0.799 1.122,-0.754 0.985,-1.204c-0.153,-0.5 -0.342,-0.214 -1.231,-0.23c-0.975,-0.019 -0.433,-1.148 -0.09,-4.228c0.068,-0.611 0.071,-0.867 0.103,-0.965c0.074,-0.232 3.756,-28.136 3.667,-28.2c-0.177,-0.127 -0.192,0.22 -2.712,0.255c-0.473,-0.069 -3.84,-0.559 -4.768,-3.61c-1.896,-6.233 3.032,-12.397 3.72,-13.258c0.638,-0.798 0.243,-1.239 1.271,-1.837c0.48,-0.279 0.523,-0.262 0.652,-0.809c0.244,0.391 0.253,0.502 0.678,0.351c0.309,-0.204 1.418,-0.74 1.543,-0.801c1.351,-0.654 3.621,-1.115 3.692,-1.155c0.182,-0.105 0.2,-2.624 0.137,-3.052c-0.084,-0.571 -2.056,0.225 -2.259,-1.581c-0.209,-1.864 1.637,-1.149 3.279,-2.196c1.93,-1.23 1.437,-3.913 2.753,-2.663c1.327,1.26 2.555,0.741 2.754,1.543c0.239,0.962 0.041,0.978 0.251,1.948c0.469,2.166 -0.001,2.19 0.068,2.366c0.097,0.245 1.469,0.349 -0.096,1.969c-0.534,0.552 -0.357,0.629 -0.232,1.111c0.055,0.212 0.124,0.479 2.532,1.052l0.128,-0.267l0.178,-0.184c0.382,1.45 1.45,0.505 4.277,3.741c1.46,1.671 3.943,5.509 4.356,5.431c0.878,-0.166 2.249,-4.133 4.829,-4.609c0.648,-0.12 0.953,-1.397 1.776,-1.333c1.32,0.103 0.636,-1.311 2.149,-2.249c3.811,-2.363 4.116,-1.904 4.261,-1.571c0.135,0.309 0.268,0.505 -1.022,1.758c1.377,0.621 3.743,-0.954 4.671,-0.308c0.767,0.534 1.155,0.33 1.12,1.268c-0.012,0.312 0.434,0.762 -0.347,1.275c-0.444,0.292 -0.319,0.377 -0.527,0.865c-0.512,1.205 -4.998,1.128 -5.443,1.12c-1.592,-0.028 -0.911,0.768 -0.963,1.217c-0.137,1.179 -0.904,0.945 -0.845,2.142c0.104,2.091 -6.32,12.878 -12.634,9.227c-1.891,-1.093 -2.417,-2.057 -2.613,-1.755c-0.865,1.331 -0.884,1.34 -0.859,1.474c0.439,2.371 0.488,2.359 5.775,29.583c0.164,0.847 0.228,1.314 0.276,1.572c0.052,0.28 0.692,3.57 0.872,4.461c0.277,1.366 -0.98,0.787 -1.474,0.93c-1.097,0.318 0.425,0.404 0.891,1.428c1.074,2.358 3.926,1.769 7.084,4.063c0.195,0.19 0.349,0.352 0.379,0.384c0.241,0.478 0.211,0.466 0.322,0.99c0.043,0.42 0.306,1.685 -0.696,1.853c-0.985,0.165 -11.625,0.044 -12.636,0.033c-1.829,-0.021 -1.343,-1.048 -1.347,-3.278c0.019,-1.125 0.015,-2.448 0.143,-3.121c0.147,-0.77 0.223,-0.745 0.158,-1.537c-0.105,-1.268 -0.809,-0.699 -1.474,-0.846c-0.674,-0.149 -0.913,-4.123 -1.181,-4.415c-0.031,-0.034 -0.06,-0.063 -0.091,-0.089l-1.02,-5.952c-0.32,-0.175 -1.678,-8.892 -3.006,-15.478c-0.845,7.97 -2.021,15.032 -3.082,21.238l-0.004,-0.045l0.004,0.045c-0.001,0.005 -0.002,0.01 -0.003,0.015c0.001,-0.005 0.002,-0.01 0.003,-0.015l0.022,0.276Z" style="fill:#312844;fill-opacity:1;"/><path d="M27.386,49.236c0.926,2.453 0.746,3.238 2.886,4.098c0.516,0.208 0.101,0.471 1.514,6.79c0.128,0.572 0.145,0.55 0.217,1.149c0.065,0.542 0.695,3.591 0.759,3.902c0.141,0.68 3.47,17.446 3.356,17.663c-0.1,0.192 -7.958,0.069 -7.968,0.06c-0.067,-0.063 -0.365,-1.525 -0.782,-3.711c-1.246,-6.531 -3.559,-19.532 -3.984,-21.042c-0.036,-0.129 -0.431,-2.433 0.753,-3.21c0.064,-0.042 1.325,-0.869 0.527,-0.805c-0.214,0.017 -1.323,0.656 -1.526,1.118c-0.101,0.23 -0.183,0.415 -0.469,3.101c-0.601,2.464 -3.215,24.467 -3.608,24.561c-0.081,0.019 -6.199,0.025 -6.283,0.006c-0.286,-0.062 -0.165,-0.246 3.376,-27.673c0.137,-1.059 0.041,-1.287 0.385,-1.512c0.166,-0.109 1.981,-1.057 2.375,-3.096c0.553,-0.718 0.751,-0.398 6.544,-1.175c0.986,-0.132 0.959,-0.139 1.93,-0.225Z" style="fill:#7445c5;"/><path d="M25.158,31.885c0.323,-0.122 0.631,-0.702 3.78,1c3.997,2.16 6.812,8.951 7.764,8.119c2.287,-2 3.48,-6.133 5.813,-3.96c2.302,2.144 4.458,2.144 2.421,5.377c-5.821,9.238 -9.029,7.115 -11.09,6.533c-0.382,-0.108 -1.156,-0.811 -1.569,-1.134c0.027,-0.085 -0.141,0.018 -0.11,-0.081c0.058,-0.18 0.14,-0.106 0.226,-0.284c0.23,-0.474 -1.069,-3.59 -1.194,-3.891l-0.048,-0.195l-0.196,-0.195l-0.307,-0.186c-0.047,-0.279 -0.872,-5.173 -1.177,-3.335c-0.136,0.822 2.595,8.639 -0.146,8.872c-5.107,0.436 -9.854,0.354 -10.712,0.34c0.085,-0.384 0.092,-0.361 0.328,-0.694c1.548,-2.182 4.199,-7.135 3.832,-8.896c-0.191,-0.917 -0.047,-0.905 0.27,-1.767c0.348,-0.949 -0.454,-1.237 0.333,-1.839c0.12,-0.091 4.369,-2.733 1.78,-3.786Z" style="fill:#fc671b;"/><path d="M44.313,6.199c1.166,-1.056 1.436,-1.485 2.141,-0.759c1.231,1.27 0.369,1.446 -0.15,1.983c-0.613,0.634 -0.112,0.708 0.281,1.547c1.886,4.031 -0.246,7.443 -0.605,8.157c1.828,2.414 7.29,5.639 5.357,7.391c-1.43,1.296 -2.655,-0.534 -3.21,-1.107c0.235,0.027 0.469,0.053 0.704,0.08c0.198,0.19 0.383,0.393 0.581,0.582c1.127,1.079 2.572,-0.303 1.457,-1.468c-2.902,-3.03 -3.477,-3.372 -3.838,-3.587c-0.052,0.025 -0.104,0.051 -0.156,0.076c-0.667,0.629 -0.573,0.75 -1.188,0.948c-0.09,0.082 -0.109,-0.059 -0.19,0.014c-0.027,0.025 -0.019,0.029 -0.252,0.388c-0.098,-0.212 -0.197,-0.424 -0.295,-0.635c-0.417,-0.69 -0.406,-0.691 -0.45,-0.745c-0.734,-0.91 -3.511,3.232 -9.335,-0.132c-0.385,0.126 -0.383,0.105 -0.688,0.396c-0.705,0.673 -0.891,0.741 -1.59,0.061c-0.92,-0.896 -0.416,-1.084 0.318,-1.91c0.345,-0.388 0.003,-0.392 -0.289,-0.812c-1.038,-1.492 -1.395,-3.822 -1.169,-5.189c0.453,-2.738 1.47,-3.469 1.522,-3.698c0.093,-0.413 -0.115,-0.346 -0.771,-1.028c-0.291,-0.303 -0.337,-0.454 0.537,-1.316c0.817,-0.807 0.948,-0.239 1.794,0.52c0.259,0.233 1.046,-0.547 2.286,-0.929c3.889,-1.195 6.572,0.848 7.2,1.17Z" style="fill:#312a4a;"/><path d="M6.945,45.315c0.241,-1.966 0.054,-2.006 1.429,-5.424c2.655,-6.6 7.983,-7.733 8.917,-7.932c0.781,-0.166 0.989,-0.379 1.286,0.355c0.319,0.786 1.253,0.555 0.752,1.654c-0.296,0.649 -0.896,0.013 -1.447,1.049c-0.375,0.705 -0.258,0.845 -1.008,1.113c-2.169,0.776 -3.682,5.734 -5.41,6.325c-0.099,0.034 -1.629,0.557 -0.978,0.874c0.171,0.083 1.137,-0.606 1.156,-0.546c0.04,0.124 -1.502,2.377 -0.405,1.548c0.754,-0.569 4.785,-8.46 6.439,-7.805c0.107,0.043 4.156,2.091 4.35,2.276c1.206,1.15 -1.904,6.89 -3.828,9.582c-0.505,0.909 -0.856,1.219 -1.728,1.955c-1.859,1.568 -2.758,1.396 -3.862,1.591c-3.433,-0.064 -3.232,-0.765 -4.468,-1.756c-0.712,-0.571 -1.143,-3.203 -1.191,-3.495l-0.026,-0.584l-0.001,-0.195l0.023,-0.586Z" style="fill:#fc671c;"/><path d="M29.547,91.031c0.004,2.23 -0.482,3.257 1.347,3.278c1.011,0.011 11.651,0.132 12.636,-0.033c1.002,-0.168 0.739,-1.432 0.696,-1.853c0.254,0.044 4.26,0.737 2.605,1.894c-0.607,0.424 -38.851,2.314 -44.709,0.359c-2.915,-0.973 0.647,-2.074 0.76,-2.139l0.283,-0.114c-0.047,0.88 -0.518,1.869 1.274,1.89c1.029,0.012 12.215,0.144 12.865,-0.094c0.758,-0.278 0.528,-1.405 0.544,-2.994c1.759,-0.491 11.369,-0.137 11.699,-0.194Z" style="fill:#ccaee8;fill-opacity:1;"/><path d="M27.608,31.772c-2.408,-0.573 -2.477,-0.84 -2.532,-1.052c-0.125,-0.483 -0.302,-0.559 0.232,-1.111c1.565,-1.62 0.193,-1.724 0.096,-1.969c-0.07,-0.176 0.4,-0.2 -0.068,-2.366c-0.21,-0.97 -0.011,-0.986 -0.251,-1.948c-0.199,-0.802 -1.427,-0.283 -2.754,-1.543c-1.316,-1.25 -0.824,1.433 -2.753,2.663c-1.642,1.047 -3.488,0.332 -3.279,2.196c0.203,1.806 2.175,1.01 2.259,1.581c0.063,0.427 0.044,2.947 -0.137,3.052c-0.07,0.041 -2.341,0.502 -3.692,1.155c-0.125,0.061 -1.234,0.597 -1.543,0.801c-0.021,-0.06 -0.167,0.085 -0.188,0.025c-0.042,-0.122 0.156,-0.152 -0.315,-1.586c-1.18,-3.588 3.422,-2.618 2.972,-6.97c-0.049,-0.478 -0.476,-4.611 3.762,-4.676c0.872,-0.013 0.997,0.346 1.984,-0.134c1.768,-0.86 4.326,0.082 4.364,3.054c0.032,2.505 -0.02,2.615 1.601,4.498c1.682,1.955 -0.474,2.397 0.243,4.33Z" style="fill:#5285e2;"/><path d="M18.77,10.681c0.958,-4.209 3.715,-3.295 3.088,-5.806c-0.269,-1.08 -2.273,-2.028 -2.893,0.356c-0.204,0.786 -1.826,0.511 -1.882,0.511c-0.129,-0.001 -1.492,-0.013 -1.591,-0.289c-0.543,-1.504 2.005,-6.132 7.594,-4.037c0.598,0.224 5.103,3.311 0.196,7.689c-1.999,1.783 -0.807,2.57 -1.504,2.977c-0.163,0.095 -0.263,0.154 -2.361,0.094c-1.015,-0.029 -0.689,-0.789 -0.647,-1.496Z" style="fill:#3d241d;"/><path d="M44.358,6.843c0.703,-0.627 1.546,-1.927 2.147,-0.643c0.054,0.114 0.128,0.275 -0.887,1.306c-2.728,2.974 -5.233,4.517 -4.486,5.381c0.035,0.041 0.028,0.107 0.063,0.148c0.389,0.389 0.778,0.778 1.167,1.168l0.582,0.586c0.178,0.182 0.945,1.016 1.289,1.222c2.483,2.481 2.448,2.651 2.26,2.875c-1.052,1.26 -1.234,0.028 -4.578,-3.263c-1.598,-1.573 -1.878,-2.528 -3.015,-1.401c-4.827,4.782 -4.922,5.622 -5.672,4.835c-0.305,-0.32 -0.291,-0.352 -0.179,-0.77c0.031,-0.116 -0.143,-0.224 0.207,-0.373c0.265,-0.113 0.197,-0.176 0.416,-0.347c0.031,-0.032 0.192,-0.203 0.393,-0.398c4.001,-3.899 4.952,-4.5 4.188,-5.278c-0.285,-0.29 -2.758,-2.808 -3.628,-3.57c-0.192,-0.196 -0.383,-0.392 -0.575,-0.588l-0.199,-0.2c-0.686,-0.892 -1.286,-0.992 -0.796,-1.497c0.7,-0.722 0.921,-0.36 2.153,0.925c1.96,2.043 1.965,2.012 4.027,3.951c0.028,0.026 0.129,1.001 1.377,-0.231c0.243,-0.24 2.25,-2.22 2.97,-3.061c0.259,-0.259 0.518,-0.518 0.776,-0.777Z" style="fill:#ee432c;"/><path d="M16.11,5.244c-0.032,-0.041 -0.193,0.011 -0.156,-0.386c0.424,-4.487 7.384,-4.279 8.624,-1.516c1.496,3.333 -1.389,5.179 -2.212,6.014c-1.339,1.359 -0.467,2.4 -1.4,2.412c-1.64,0.021 -1.72,-0.116 -1.768,-0.495c0.073,-0.725 0.044,-2.07 1.587,-3.299c2.591,-2.065 1.386,-4.028 0.795,-4.322c-2.393,-1.189 -2.981,1.334 -3.323,1.609c-1.095,0.007 -1.071,0.003 -2.147,-0.018Z" style="fill:#f96b20;"/><path d="M7.546,92.404c-0.622,-0.603 -0.162,-0.832 -0.64,-1.535c-0.195,-0.287 -0.237,-0.247 -0.252,-0.272c-0.332,-0.534 0.068,-0.463 0.295,-0.58c1.382,-0.716 1.173,0.451 1.982,0.729c0.836,0.288 -0.643,-1.175 -0.588,-1.268c0.424,-0.718 1.699,0.731 1.744,0.753c1.111,0.546 -0.603,-1.183 -0.528,-1.306c0.419,-0.685 1.61,0.679 1.693,0.711c0.871,0.337 -0.607,-1.192 -0.546,-1.318c0.896,-1.864 1.335,-1.74 1.51,-1.69c1.275,0.362 0.338,1.204 1.009,1.619c1.698,1.051 3.963,-0.369 4.043,-0.282c0.119,0.128 0.156,4.153 0.12,4.348c-0,0 -0.462,0.102 -0.502,0.111l-1.168,-0.003l-1.36,-0.003c-1.621,0 -3.242,0 -4.864,0l-1.361,-0.005l-0.589,-0.009Z" style="fill:#24b07e;"/><path d="M30.306,87.985c0.276,0.137 2.676,1.329 3.848,0.257c0.534,-0.489 -0.32,-1.259 1.03,-1.625c0.175,-0.047 0.543,-0.147 1.509,1.696c0.037,0.071 -1.526,1.684 -0.573,1.275c0.607,-0.261 0.358,-0.774 1.384,-0.826c0.975,-0.049 -1.119,1.388 -0.38,1.466c0.081,0.008 1.583,-1.474 1.902,-0.749c0.049,0.111 -1.483,1.405 -0.535,1.203c0.156,-0.033 0.857,-1.014 1.364,-0.886c1.13,0.285 0.969,0.558 0.918,0.63c-0.962,1.368 -0.36,1.976 -1.122,1.985c-0.218,0.002 -0.202,0 -2.726,0.003l-1.167,0.003l-0.973,0l-0.778,-0.001l-0.195,-0.001l-0.779,-0.005c-1.549,0.001 -3.033,0.15 -3.045,-0.247c-0.024,-0.764 -0.038,-0.745 -0.065,-1.525c0.04,-0.322 0.081,-0.645 0.121,-0.967c0.031,-0.51 0.063,-1.021 0.094,-1.531l0.168,-0.157Z" style="fill:#22b07f;"/><path d="M24.718,23.722c-0.493,0.209 -0.503,0.152 -1.015,-0.026c-0.511,-0.177 -0.357,0.583 0.584,0.642c0.045,0.003 0.041,-0.002 0.559,-0.023c0.03,0.294 0.338,3.26 -0.176,3.689c-0.908,0.757 -2.815,2.453 -3.483,1.704c-0.799,-0.897 -0.63,-1.428 -1.583,-1.161c-0.297,0.083 -0.26,0.152 -0.569,0.231c-0.061,-1.054 0.059,-1.519 -0.974,-1.327c-1.161,0.215 -1.823,-1.033 -0.974,-1.776c0.806,-0.277 0.916,0.154 1.631,-0.31c0.056,-0.036 2.043,-0.659 2.773,-2.641c0.015,-0.04 0.066,-0.992 0.752,-0.459c0.436,0.338 0.394,0.374 0.911,0.606c1.026,0.462 1.3,0.155 1.564,0.851Z" style="fill:#f6b4a0;"/><path d="M14.792,54.153c0.648,-0.071 1.012,-0.346 0.941,0.306c-0.509,4.619 -2.69,20.556 -3.596,28.001c-0.012,0.095 -0.102,0.837 -1.115,0.45c-0.087,-0.033 -0.122,-0.099 3.006,-24.357c0.55,-4.263 0.606,-4.283 0.764,-4.4Z" style="fill:#7547c0;"/><path d="M33.85,7.533l0.199,0.2c0.118,0.443 0.142,0.463 0.575,0.588c0.87,0.762 3.343,3.279 3.628,3.57c0.764,0.778 -0.187,1.378 -4.188,5.278l-0.473,-0.082l0.041,-0.13c1.001,-0.432 0.565,-0.925 0.506,-0.992c-0.375,-0.426 -1.869,-3.236 -0.537,-6.061c0.464,-0.984 1.011,-1.156 0.17,-1.845c-0.019,-0.019 -0.234,-0.234 -0.234,-0.234c0.067,-0.126 0.246,-0.166 0.313,-0.292Z" style="fill:#32233f;"/><path d="M21.947,30.729c1.649,-1.256 3.059,-2.465 3.309,-2.513c1.566,-0.3 -1.887,2.485 -1.907,2.708c-0.05,0.559 1.047,-0.359 1.107,-0.347c0.625,0.116 -0.645,1.258 -0.334,1.437c0.464,0.266 0.734,-0.86 1.035,-0.129c-0.332,0.817 -0.465,0.716 -0.477,0.789c-0.089,0.547 0.667,-0.074 0.769,-0.005c0.709,0.483 -2.011,2.29 -2.774,3.051c-0.317,0.316 -0.395,0.115 -2.267,-0.762c-1.159,-0.543 -0.536,-1.116 -0.474,-1.33c0.67,-2.307 -0.606,-4.613 -0.124,-4.644c1.005,-0.065 0.82,2.528 2.138,1.744Z" style="fill:#f8b39f;"/><path d="M45.617,7.505c0.087,0.392 0.184,0.434 -0.104,0.714c-0.88,0.829 -0.359,0.988 -0.042,1.697c1.39,3.116 -0.379,5.823 -0.543,6.209c-0.29,-0.245 -0.311,-0.172 -0.696,-0.117c-0.344,-0.206 -1.111,-1.041 -1.289,-1.222c-0.173,-0.409 -0.175,-0.411 -0.582,-0.586c-0.223,-0.861 -0.379,-0.874 -1.167,-1.168c-0.035,-0.041 -0.028,-0.107 -0.063,-0.148c-0.747,-0.863 1.758,-2.406 4.486,-5.381Z" style="fill:#2d213f;"/><path d="M49.371,33.088c0.027,0.044 0.002,0.039 0.31,0.571c0.715,1.428 0.522,1.862 1.254,1.757c0.14,-0.02 3.929,-0.564 1.758,0.195c-3.838,1.343 -4.304,-0.269 -6.06,1.106c-0.175,0.137 -0.377,0.295 -2.33,-1.503c-0.134,-0.124 -0.548,-0.504 0.819,-2.128c0.226,-0.268 6.318,-4.186 2.908,-0.783c-0.873,0.871 1.268,0.78 1.342,0.784Z" style="fill:#f5b2a0;"/><path d="M35.529,15.132c-0.606,0.563 -0.567,0.793 -0.943,0.623c-0.33,-0.15 -1.66,-2.849 -0.73,-5.242c0.064,-0.166 0.607,-1.769 1.073,-1.316c3.12,3.034 3.262,3.077 3.092,3.403c-0.131,0.252 -0.175,0.197 -2.493,2.532Z" style="fill:#bfefe5;"/><path d="M27.914,31.321l-0.178,0.184l-0.128,0.267c-0.717,-1.933 1.439,-2.375 -0.243,-4.33c-1.621,-1.883 -1.569,-1.994 -1.601,-4.498c-0.038,-2.972 -2.596,-3.914 -4.364,-3.054c-0.987,0.48 -1.112,0.121 -1.984,0.134c-4.238,0.066 -3.812,4.198 -3.762,4.676c0.449,4.352 -4.152,3.381 -2.972,6.97c0.471,1.434 0.273,1.464 0.315,1.586c0.021,0.06 0.167,-0.085 0.188,-0.025c-0.425,0.151 -0.434,0.04 -0.678,-0.351c-0.474,-2.665 -1.084,-3.202 1.726,-5.376c2.218,-1.716 -0.565,-5.293 2.915,-7.381c1.763,-1.058 3.013,-0.219 4.023,-0.669c2.504,-1.116 5.029,0.511 5.048,3.492c0.015,2.322 -0.05,2.439 1.492,4.147c1.514,1.678 0.283,2.63 0.202,4.228Z" style="fill:#23355d;"/><path d="M42.415,8.207c-2.194,2.204 -2.548,2.859 -3.136,2.269c-2.818,-2.834 -2.998,-3.018 -2.678,-3.215c2.787,-1.715 6.839,-0.123 6.105,0.664c-0.092,0.099 -0.2,0.183 -0.292,0.283Z" style="fill:#beefe6;"/><path d="M39.036,14.749c0.438,-0.449 0.431,-0.45 0.473,-0.485c0.257,-0.214 0.327,-0.066 3.168,2.728c1.046,1.028 -4.135,2.16 -6.073,0.644c-0.285,-0.223 -0.032,-0.31 2.432,-2.887Z" style="fill:#c0efe6;"/><path d="M43.632,14.88c-2.099,-2.199 -2.348,-2.312 -1.963,-2.76c0.208,-0.242 2.422,-2.813 2.841,-2.8c1.324,0.043 1.273,7.824 -0.49,5.95c-0.129,-0.13 -0.259,-0.26 -0.388,-0.39Z" style="fill:#c1f1e7;"/><path d="M13.776,85.167c-0.235,-0.008 -1.354,-0.044 -2.93,-0.124c-0.383,-0.02 -0.154,-1.523 0.016,-1.588c0.175,-0.067 7.336,-0.025 7.974,-0.021c0.294,0.002 0.065,1.283 0.045,1.393c-0.071,0.395 -2.625,0.337 -5.106,0.341Z" style="fill:#7758c6;"/><path d="M36.15,85.062c-1.836,0.109 -7.606,0.217 -7.699,-0.13c-0.378,-1.414 -0.2,-1.471 -0.082,-1.476c0.634,-0.024 7.816,-0.293 7.926,0.067c0.036,0.116 0.019,0.11 0.259,1.488c-0.135,0.017 -0.27,0.034 -0.405,0.05Z" style="fill:#7757c6;"/><path d="M46.874,19.095l0.156,-0.076c0.361,0.215 0.936,0.557 3.838,3.587c1.116,1.165 -0.33,2.547 -1.457,1.468c-0.198,-0.19 -0.383,-0.393 -0.581,-0.582l-0.586,-0.589l-0.773,-0.776c-1.833,-1.868 -1.758,-1.937 -1.785,-2.083c0.616,-0.199 0.521,-0.32 1.188,-0.948Z" style="fill:#6f7dd9;"/><path d="M40.038,92.906c3.563,0.08 3.699,-0.065 3.757,0.23c0.198,1.014 -0.563,0.728 -12.901,0.685c-0.094,-0 -1.265,-0.004 -0.898,-0.764c0.122,-0.252 1.328,-0.088 10.042,-0.152Z" style="fill:#fcfcfb;"/><path d="M7.162,92.912c9.726,0.023 10.31,-0.371 10.223,0.443c-0.066,0.621 -0.419,0.446 -11.391,0.47c-0.646,0.001 -2.343,0.231 -2.447,-0.46c-0.064,-0.425 0.207,-0.367 3.614,-0.452Z" style="fill:#fcfcfb;"/><path d="M22.044,14.066c1.691,3.953 -4.701,3.581 -3.539,0.34c0.265,-0.74 1.927,-2.159 3.539,-0.34Z" style="fill:#442821;"/><path d="M33.771,8.059c0.841,0.689 0.294,0.861 -0.17,1.845c-1.332,2.824 0.162,5.635 0.537,6.061c0.059,0.067 0.494,0.56 -0.506,0.992c-0.28,-0.532 -1.314,-1.888 -1.475,-4.129c-0.199,-2.759 1.345,-4.47 1.615,-4.769Z" style="fill:#707fd4;"/><path d="M33.625,85.808c0.095,-0.02 2.977,-0.615 1.119,0.477c-0.792,0.466 -0.683,0.581 -0.858,1.467c-0.119,0.601 -3.852,0.859 -3.513,-1.132c0.046,-0.268 3.11,-0.784 3.251,-0.813Z" style="fill:#f6b29a;"/><path d="M43.961,6.621c-0.445,0.473 -0.477,0.769 -1.016,0.39c-2.971,-2.084 -6.118,-0.4 -6.582,-0.152c-0.066,0.035 -0.56,0.3 -0.931,-0.118c-0.281,-0.316 1.007,-1.295 3.433,-1.551c2.67,-0.282 4.75,1.187 5.096,1.431Z" style="fill:#7283d4;"/><path d="M45.513,8.22c1.194,1.385 2.385,5.469 -0.018,8.445c-0.345,-0.211 -0.324,-0.207 -0.568,-0.538c0.165,-0.386 1.933,-3.094 0.543,-6.209c-0.317,-0.71 -0.837,-0.868 0.042,-1.697Z" style="fill:#707fd6;"/><path d="M35.445,18.335c1.081,-0.992 1.278,0.612 4.204,0.566c2.926,-0.046 3.21,-1.621 3.963,-0.888c0.147,0.143 0.137,0.125 0.268,0.284c-4.024,2.802 -5.91,0.986 -7.308,0.861c-0.684,-0.061 -1.071,-0.726 -1.127,-0.822Z" style="fill:#7081d3;"/><path d="M16.896,86.542c0.03,0.082 0.06,0.165 0.09,0.247c-0.217,2.174 -3.431,1.309 -3.532,0.917c-0.099,-0.382 0.045,-0.392 -0.09,-0.753c-0.161,-0.43 -1.4,-0.998 -0.923,-1.306c0.293,-0.189 4.104,0.802 4.456,0.894Z" style="fill:#f5af96;"/><path d="M21.63,14.337c1.341,2.474 -3.124,3.072 -2.722,0.456c0.114,-0.744 0.175,-0.781 0.896,-0.994c0.102,-0.03 0.707,-0.209 1.329,0.076c0.326,0.149 0.289,0.231 0.496,0.462Z" style="fill:#f66922;"/><path d="M31.091,89.865c1.006,-1.152 2.158,-0.35 2.345,0.382c0.577,2.253 -3.551,2.239 -2.345,-0.382Z" style="fill:#20403b;"/><path d="M14.927,91.878c-1.534,-0.397 -0.944,-1.898 -0.697,-2.149c1.454,-1.477 3.594,1.227 1.259,2.183c-0.526,-0.287 -0.556,-0.035 -0.562,-0.034Z" style="fill:#214240;"/><path d="M29.536,48.992c0.915,3.605 0.855,3.914 0.583,3.774c-1.853,-0.953 -1.978,-2.83 -2.13,-3.542c0.386,-0.116 0.381,-0.085 1.547,-0.232Z" style="fill:#7348c0;"/><path d="M18.453,50.343c-0.312,1.178 -0.193,1.249 -1.045,2.106c-1.134,1.141 -1.845,1.176 -2.649,1.219c-0.209,-1.775 1.155,-1.024 2.869,-2.75c0.371,-0.373 0.322,-0.439 0.824,-0.574Z" style="fill:#6e46ba;"/><path d="M41.358,90.565c0.719,-0.166 2.157,0.809 2.312,1.635c0.089,0.474 -3.107,0.277 -3.164,0.149c-0.311,-0.704 0.736,-1.677 0.852,-1.784Z" style="fill:#fdfcfe;"/><path d="M3.67,92.384c0.054,-0.209 0.316,-1.227 1.954,-1.854c0.712,-0.272 1.231,1.304 1.202,1.673c-0.034,0.429 -2.59,0.306 -3.155,0.181Z" style="fill:#fbfbfc;"/><path d="M30.649,42.99l0.307,0.186l0.196,0.195l0.048,0.195c0.125,0.301 1.423,3.417 1.194,3.891c-0.086,0.178 -0.169,0.104 -0.226,0.284c-0.032,0.099 0.137,-0.004 0.11,0.081c-1.346,-1.042 -1.18,-1.194 -1.26,-2.11c-0.019,-0.219 -0.052,-0.596 -0.368,-2.721Z" style="fill:#e25510;"/><path d="M31.431,90.229c0.073,-0.096 0.934,-1.22 1.508,0.056c0.542,1.205 -1.988,1.926 -1.508,-0.056Z" style="fill:#fcfcfd;"/><path d="M14.496,91.071c-0.053,-0.102 -0.629,-1.211 0.637,-1.286c1.491,-0.088 0.712,2.632 -0.637,1.286Z" style="fill:#fdfdfe;"/><path d="M45.685,20.044c0.028,0.145 -0.047,0.215 1.785,2.083c0.07,0.148 0.03,0.333 0.1,0.481c0.147,0.309 0.231,0.182 0.673,0.296l0.586,0.589c-0.235,-0.027 -0.469,-0.053 -0.704,-0.08c-0.236,-0.232 -2.438,-2.404 -2.883,-2.965c0.233,-0.36 0.224,-0.364 0.252,-0.388c0.081,-0.074 0.1,0.068 0.19,-0.014Z" style="fill:#202754;"/><path d="M18.972,28.993c0.056,0.093 0.223,0.075 0.28,0.168c0.295,0.487 0.407,2.329 0.419,2.534c0.004,0.064 0.096,1.586 -0.581,0.55c-0.22,-0.337 -0.023,-0.438 -0.118,-3.251Z" style="fill:#f1baae;"/><path d="M53.945,34.077c-0.485,0.77 -1.576,0.679 -1.66,0.69c-0.094,0.012 -6.302,0.601 -1.153,-0.286c2.047,-0.352 2.085,-0.869 2.813,-0.403Z" style="fill:#e9b4ac;"/><path d="M53.273,32.943c2.682,0.14 -1.95,1.091 -2.14,1.13c-0.874,0.179 -0.684,-0.27 -0.631,-0.284c1.418,-0.367 1.4,-0.369 2.77,-0.846Z" style="fill:#e2b6b1;"/><path d="M48.4,34.815c-0.773,-0.223 -0.754,-0.294 -1.559,-0.265c-0.177,0.007 -0.704,0.171 -0.814,0.148c-0.926,-0.197 1.203,-1.112 2.826,-0.174c1.748,1.01 -0.413,0.308 -0.453,0.291Z" style="fill:#462725;"/><path d="M52.824,32.506c-0.044,0.031 0.067,0.129 0.023,0.16c-0.904,0.628 -2.65,0.734 -2.889,0.748c-0.328,0.02 -0.237,0.209 -0.278,0.245c-0.308,-0.533 -0.283,-0.527 -0.31,-0.571c2.479,-0.282 2.434,-0.806 3.453,-0.582Z" style="fill:#d9b1b2;"/><path d="M20.424,35.654c1.392,0.138 0.03,1.704 -0.216,1.615c-0.772,-0.279 -0.071,-1.098 0.216,-1.615Z" style="fill:#ed7238;"/><path d="M44.83,37.095c-0.953,1.321 -1.098,0.137 -1.056,0.064c0.943,-1.62 1.376,-0.611 1.377,-0.607c0.016,0.137 -0.289,0.504 -0.321,0.543Z" style="fill:#f1763b;"/><path d="M19.978,35.394c-0.585,1.051 -0.529,1.881 -1.14,1.165c-0.156,-0.183 0.487,-1.611 0.773,-1.507c0.249,0.09 0.213,0.116 0.366,0.343Z" style="fill:#eb733b;"/><path d="M23.289,26.786c-0.839,0.108 -0.431,-0.346 -0.392,-0.365c0.526,-0.25 -0.891,-2.172 -0.017,-1.642c0.094,0.057 0.827,1.432 0.752,1.654c-0.013,0.037 -0.025,0.026 -0.344,0.353Z" style="fill:#3f2321;"/><path d="M46.08,37.342c-0.023,0.031 -0.732,1.43 -1.188,0.98c-0.217,-0.214 0.358,-2.091 1.188,-0.98Z" style="fill:#eb7039;"/><path d="M42.811,36.56c0.044,-0.063 0.65,-1.464 1.224,-0.922c0.177,0.167 -0.651,1.996 -1.224,0.922Z" style="fill:#e76e35;"/><path d="M22.708,27.888c-0.592,-0.015 -0.574,0.029 -1.136,0.174c-1.179,0.306 0.148,-1.113 1.512,-0.579c0.041,0.016 0.598,0.614 -0.376,0.405Z" style="fill:#57312e;"/><path d="M20.917,37.543c0.2,-0.423 0.184,-0.401 0.385,-0.815c0.496,-1.021 0.72,-0.218 0.703,-0.163c-0.307,0.986 -0.356,1.726 -1.088,0.978Z" style="fill:#e66d34;"/><path d="M21.511,25.143c-0.047,0.027 -0.043,0.027 -0.442,0.316c-0.475,-0.326 -0.484,-0.312 -0.513,-0.352c-0.059,-0.081 -0.156,-0.212 0.834,-0.932c0.368,-0.268 0.319,0.504 -0.028,0.716c-0.395,0.241 0.055,0.185 0.15,0.252Z" style="fill:#644340;"/><path d="M24.718,23.722c0.097,0.304 0.093,0.289 0.127,0.593c-0.518,0.021 -0.514,0.025 -0.559,0.023c-0.941,-0.058 -1.094,-0.819 -0.584,-0.642c0.512,0.178 0.522,0.234 1.015,0.026Z" style="fill:#66403e;"/><path d="M9.495,92.418c1.621,-0 3.242,-0 4.864,-0c-0.759,0.26 -0.755,0.29 -1.556,0.213c-2.869,-0.278 -2.867,0.01 -3.113,-0.028c-0.088,-0.014 -0.107,-0.17 -0.195,-0.184Z" style="fill:#24705c;"/><path d="M18.939,34.714c0.008,0.162 0.086,0.158 0.014,0.294c-0.052,0.097 -1.081,2.034 -0.967,0.985c0.101,-0.93 0.835,-1.23 0.953,-1.278Z" style="fill:#d57551;"/><path d="M22.525,36.53c0.24,0.164 0.31,0.155 0.218,0.422c-0.036,0.105 -0.424,1.228 -0.579,1.255c-0.081,0.014 -0.155,-0.085 -0.236,-0.071c0.018,-0.131 0.037,-0.261 0.055,-0.392c0.134,-0.315 0.268,-0.63 0.402,-0.945l0.141,-0.27Z" style="fill:#c86846;"/><path d="M43.337,35.203c-0.905,0.719 -0.715,1.033 -0.949,1.065c-0.554,0.075 0.216,-1.796 0.949,-1.065Z" style="fill:#c66443;"/><path d="M46.449,37.594c0.499,1.084 -1.109,1.701 -0.803,1.103c0.05,-0.097 0.072,-0.059 0.803,-1.103Z" style="fill:#c0684c;"/><path d="M17.474,26.002c1.264,0.421 0.659,0.863 0.577,0.855c-0.07,-0.007 -0.051,-0.039 -0.745,-0.471c-0.257,-0.16 -0.086,-0.225 0.168,-0.384Z" style="fill:#55312d;"/><path d="M21.511,25.143c0.031,0.046 0.38,0.559 0.034,0.694c-0.349,0.136 -0.323,-0.029 -0.477,-0.377c0.4,-0.29 0.395,-0.29 0.442,-0.316Z" style="fill:#260f0f;"/><path d="M24.391,25.244c-0.536,0.637 -0.71,-0.399 -0.433,-0.464c0.39,-0.092 0.352,0.073 0.433,0.464Z" style="fill:#240d0c;"/><path d="M41.194,13.034c0.788,0.294 0.944,0.306 1.167,1.168c-0.389,-0.389 -0.778,-0.778 -1.167,-1.168Z" style="fill:#772b2b;"/><path d="M16.11,5.244c1.076,0.021 1.051,0.024 2.147,0.018c-0.6,0.071 -0.584,0.093 -1.174,0.139c-0.263,0.02 -0.525,0.138 -0.785,0.096c-0.103,-0.017 -0.084,-0.236 -0.187,-0.252Z" style="fill:#974a28;"/><path d="M47.471,22.126l0.773,0.776c-0.442,-0.113 -0.526,0.014 -0.673,-0.296c-0.07,-0.148 -0.03,-0.333 -0.1,-0.481Z" style="fill:#414a87;"/><path d="M44.358,6.843c-0.259,0.259 -0.518,0.518 -0.776,0.777c0.19,-0.58 0.213,-0.592 0.776,-0.777Z" style="fill:#692029;"/><path d="M33.591,17.087l0.473,0.082c-0.2,0.195 -0.362,0.366 -0.393,0.398c-0.027,-0.16 -0.053,-0.32 -0.08,-0.48Z" style="fill:#581921;"/><path d="M30.044,89.673c-0.04,0.322 -0.081,0.645 -0.121,0.967c-0.039,-0.319 -0.048,-0.292 -0.084,-0.585c-0.036,-0.294 0.2,-0.373 0.205,-0.382Z" style="fill:#2a7868;"/><path d="M34.049,7.734c0.192,0.196 0.383,0.392 0.575,0.588c-0.433,-0.125 -0.456,-0.145 -0.575,-0.588Z" style="fill:#6a202b;"/><path d="M35.758,92.419l1.167,-0.003c-0.088,0.019 -0.106,0.17 -0.194,0.189c-0.053,0.011 -0.054,0.002 -0.972,-0.185Z" style="fill:#23715a;"/><path d="M15.719,92.422l1.168,0.003c-0.894,0.184 -0.893,0.197 -0.972,0.181c-0.088,-0.018 -0.108,-0.165 -0.196,-0.184Z" style="fill:#237b60;"/><path d="M42.362,14.202c0.407,0.175 0.409,0.177 0.582,0.586l-0.582,-0.586Z" style="fill:#852f2e;"/><path d="M43.632,14.88c0.129,0.13 0.259,0.26 0.388,0.39c-0.132,-0.066 -0.263,-0.131 -0.395,-0.197l0.007,-0.194Z" style="fill:#76676d;"/><path d="M14.927,91.878c0.006,-0 0.036,-0.252 0.562,0.034c-0.288,0.029 -0.276,0.012 -0.562,-0.034Z" style="fill:#216856;"/><path d="M33.033,92.412l0.779,0.005c-0.401,0.081 -0.39,0.051 -0.779,-0.005Z" style="fill:#24755e;"/><path d="M7.546,92.404l0.589,0.009c-0.13,0.029 -0.12,0.237 -0.589,-0.009Z" style="fill:#277360;"/><path d="M34.006,92.418l0.778,0.001c-0.39,0.08 -0.376,0.082 -0.778,-0.001Z" style="fill:#23795f;"/><path d="M6.923,46.096l0.026,0.584c-0.084,-0.298 -0.121,-0.288 -0.026,-0.584Z" style="fill:#a55030;"/><path d="M6.945,45.315l-0.023,0.586c-0.088,-0.302 -0.053,-0.294 0.023,-0.586Z" style="fill:#aa5433;"/><path d="M36.15,85.062c0.135,-0.017 0.27,-0.034 0.405,-0.05c-0.135,0.017 -0.27,0.034 -0.405,0.05Z" style="fill:#5d4d99;"/></g></svg>